<?xml version="1.0" encoding="UTF-8"?>
<svg id="Calque_1" xmlns="http://www.w3.org/2000/svg" version="1.1" viewBox="0 0 512 512">
  <!-- Generator: Adobe Illustrator 29.1.0, SVG Export Plug-In . SVG Version: 2.1.0 Build 142)  -->
  <defs>
    <style>
      .st0 {
        fill: #f4436c;
      }
    </style>
  </defs>
  <g id="Group_9">
    <path id="Path_35" class="st0" d="M233.5,182.5l42.1,41.4h-116.2c-17.5,0-31.7,14.2-31.7,31.6,0,0,0,0,0,0v.6c0,17.5,14.2,31.7,31.6,31.7h111.4l-.7,4.2-35.6,36c-11.6,11.2-13.6,29.1-4.7,42.5,10,14.3,29.7,17.8,43.9,7.8,1.6-1.1,3-2.3,4.4-3.7l96.2-97.2c12.4-12.6,12.4-32.8,0-45.3l-96-94.9c-12.2-12.4-32.2-12.5-44.6-.3-.1.1-.2.2-.3.3-12.3,12.5-12.2,32.7,0,45.3Z"/>
    <path id="Path_36" class="st0" d="M-.2,255.9c0,141.3,114.6,255.9,255.9,255.9s255.9-114.6,255.9-255.9S397,0,255.7,0-.2,114.6-.2,255.9ZM447.6,255.9c0,106-85.9,191.9-191.9,191.9S63.8,361.9,63.8,255.9,149.7,64,255.7,64c106,.1,191.8,86,191.9,191.9Z"/>
  </g>
</svg>